<mxfile host="Electron" modified="2023-09-04T16:05:23.422Z" agent="Mozilla/5.0 (X11; Linux x86_64) AppleWebKit/537.36 (KHTML, like Gecko) draw.io/21.6.8 Chrome/114.0.5735.289 Electron/25.5.0 Safari/537.36" etag="l5YKeaHS_uHfS2LBYfYc" compressed="false" version="21.6.8" type="device" pages="2">
  <diagram id="SJr6KKptlU5QiQrU6xVG" name="Page-1">
    <mxGraphModel dx="1350" dy="949" grid="1" gridSize="10" guides="1" tooltips="1" connect="1" arrows="1" fold="1" page="1" pageScale="1" pageWidth="827" pageHeight="1169" math="0" shadow="0">
      <root>
        <mxCell id="0" />
        <mxCell id="1" parent="0" />
        <mxCell id="rSACBjaKUUydZRqEQf3--1" value="" style="rounded=0;whiteSpace=wrap;html=1;perimeter=rhombusPerimeter;labelBackgroundColor=none;" parent="1" vertex="1">
          <mxGeometry x="670" y="700" width="120" height="60" as="geometry" />
        </mxCell>
        <mxCell id="OU96sz5634OCC1nA_dG9-2" value="" style="rounded=0;whiteSpace=wrap;html=1;rotation=0;absoluteArcSize=0;perimeter=trianglePerimeter;labelBackgroundColor=none;" parent="1" vertex="1">
          <mxGeometry x="640" y="560" width="120" height="60" as="geometry" />
        </mxCell>
        <mxCell id="z5_6quuQ41SoD1CaS452-8" value="" style="shape=parallelogram;perimeter=parallelogramPerimeter;whiteSpace=wrap;html=1;fixedSize=1;labelBackgroundColor=none;" parent="1" vertex="1">
          <mxGeometry x="500" y="250" width="120" height="60" as="geometry" />
        </mxCell>
        <mxCell id="VqnXcYf0lU8FYd1N7no6-6" value="" style="rhombus;whiteSpace=wrap;html=1;double=0;labelBackgroundColor=none;" parent="1" vertex="1">
          <mxGeometry x="540" y="760" width="80" height="80" as="geometry" />
        </mxCell>
        <mxCell id="OU96sz5634OCC1nA_dG9-3" value="" style="ellipse;whiteSpace=wrap;html=1;rotation=0;rounded=0;labelBackgroundColor=none;" parent="1" vertex="1">
          <mxGeometry x="271" y="140" width="140" height="80" as="geometry" />
        </mxCell>
        <mxCell id="OU96sz5634OCC1nA_dG9-6" value="" style="triangle;whiteSpace=wrap;html=1;rotation=0;rounded=0;direction=east;portConstraint=none;labelBackgroundColor=none;" parent="1" vertex="1">
          <mxGeometry x="170" y="560" width="60" height="80" as="geometry" />
        </mxCell>
        <mxCell id="OU96sz5634OCC1nA_dG9-1" value="" style="shape=callout;whiteSpace=wrap;html=1;perimeter=calloutPerimeter;rounded=0;direction=east;rotation=0;size=30;position=0.5;labelBackgroundColor=none;" parent="1" vertex="1">
          <mxGeometry x="290" y="430" width="120" height="80" as="geometry" />
        </mxCell>
        <mxCell id="z5_6quuQ41SoD1CaS452-9" style="edgeStyle=orthogonalEdgeStyle;rounded=0;orthogonalLoop=1;jettySize=auto;html=1;entryX=1;entryY=1;entryDx=0;entryDy=0;labelBackgroundColor=none;fontColor=default;" parent="1" source="OU96sz5634OCC1nA_dG9-2" target="z5_6quuQ41SoD1CaS452-8" edge="1">
          <mxGeometry relative="1" as="geometry" />
        </mxCell>
        <mxCell id="z5_6quuQ41SoD1CaS452-10" style="edgeStyle=orthogonalEdgeStyle;rounded=0;orthogonalLoop=1;jettySize=auto;html=1;entryX=0;entryY=0;entryDx=0;entryDy=0;labelBackgroundColor=none;fontColor=default;" parent="1" source="OU96sz5634OCC1nA_dG9-2" target="z5_6quuQ41SoD1CaS452-8" edge="1">
          <mxGeometry relative="1" as="geometry" />
        </mxCell>
        <mxCell id="Aze3I1Gy4K5vf0Qh-mg0-6" style="edgeStyle=orthogonalEdgeStyle;rounded=0;orthogonalLoop=1;jettySize=auto;html=1;entryX=0;entryY=0;entryDx=0;entryDy=0;exitX=0.5;exitY=1;exitDx=0;exitDy=0;" edge="1" parent="1" source="OU96sz5634OCC1nA_dG9-2" target="rSACBjaKUUydZRqEQf3--1">
          <mxGeometry relative="1" as="geometry" />
        </mxCell>
        <mxCell id="VqnXcYf0lU8FYd1N7no6-7" style="edgeStyle=orthogonalEdgeStyle;rounded=0;orthogonalLoop=1;jettySize=auto;html=1;entryX=1;entryY=0;entryDx=0;entryDy=0;labelBackgroundColor=none;fontColor=default;" parent="1" source="rSACBjaKUUydZRqEQf3--1" target="VqnXcYf0lU8FYd1N7no6-6" edge="1">
          <mxGeometry relative="1" as="geometry" />
        </mxCell>
        <mxCell id="OU96sz5634OCC1nA_dG9-4" style="edgeStyle=orthogonalEdgeStyle;rounded=0;orthogonalLoop=1;jettySize=auto;html=1;labelBackgroundColor=none;fontColor=default;" parent="1" source="v7lvr-B3FCQAbCfzJB2g-1" target="OU96sz5634OCC1nA_dG9-3" edge="1">
          <mxGeometry relative="1" as="geometry" />
        </mxCell>
        <object label="&lt;meta charset=&quot;utf-8&quot;&gt;ðŸ”‘." value="ðŸ”‘." id="v7lvr-B3FCQAbCfzJB2g-1">
          <mxCell style="shape=process;whiteSpace=wrap;html=1;backgroundOutline=1;direction=north;size=0.25;labelBackgroundColor=none;rotation=0;rounded=0;" parent="1" vertex="1">
            <mxGeometry x="40" y="40" width="120" height="60" as="geometry" />
          </mxCell>
        </object>
        <mxCell id="5ox5fLNj8i4eV1NRZc5k-4" style="edgeStyle=orthogonalEdgeStyle;rounded=0;orthogonalLoop=1;jettySize=auto;html=1;exitX=1;exitY=0.5;exitDx=0;exitDy=0;entryX=0;entryY=0.5;entryDx=0;entryDy=0;labelBackgroundColor=none;fontColor=default;" parent="1" source="yk5Z2D5nuyeelbN2XrMu-4" target="OU96sz5634OCC1nA_dG9-3" edge="1">
          <mxGeometry relative="1" as="geometry" />
        </mxCell>
        <mxCell id="5ox5fLNj8i4eV1NRZc5k-5" style="edgeStyle=orthogonalEdgeStyle;rounded=0;orthogonalLoop=1;jettySize=auto;html=1;labelBackgroundColor=none;fontColor=default;" parent="1" source="yk5Z2D5nuyeelbN2XrMu-4" target="5ox5fLNj8i4eV1NRZc5k-3" edge="1">
          <mxGeometry relative="1" as="geometry" />
        </mxCell>
        <mxCell id="yk5Z2D5nuyeelbN2XrMu-4" value="" style="shape=process;whiteSpace=wrap;html=1;backgroundOutline=1;labelBackgroundColor=none;direction=east;rotation=20;rounded=0;" parent="1" vertex="1">
          <mxGeometry x="40" y="150" width="120" height="60" as="geometry" />
        </mxCell>
        <mxCell id="OU96sz5634OCC1nA_dG9-5" style="edgeStyle=orthogonalEdgeStyle;orthogonalLoop=1;jettySize=auto;html=1;entryX=0;entryY=1;entryDx=0;entryDy=0;rounded=0;labelBackgroundColor=none;fontColor=default;" parent="1" source="OU96sz5634OCC1nA_dG9-1" target="OU96sz5634OCC1nA_dG9-3" edge="1">
          <mxGeometry relative="1" as="geometry">
            <Array as="points">
              <mxPoint x="370" y="300" />
              <mxPoint x="291" y="300" />
            </Array>
          </mxGeometry>
        </mxCell>
        <mxCell id="OU96sz5634OCC1nA_dG9-7" style="edgeStyle=orthogonalEdgeStyle;orthogonalLoop=1;jettySize=auto;html=1;entryX=0.5;entryY=0;entryDx=0;entryDy=0;exitX=0;exitY=0;exitDx=120;exitDy=25;exitPerimeter=0;rounded=0;labelBackgroundColor=none;fontColor=default;" parent="1" source="OU96sz5634OCC1nA_dG9-1" target="OU96sz5634OCC1nA_dG9-6" edge="1">
          <mxGeometry relative="1" as="geometry">
            <mxPoint x="220" y="590" as="targetPoint" />
          </mxGeometry>
        </mxCell>
        <mxCell id="5ox5fLNj8i4eV1NRZc5k-2" style="edgeStyle=orthogonalEdgeStyle;rounded=0;orthogonalLoop=1;jettySize=auto;html=1;entryX=0.25;entryY=0.5;entryDx=0;entryDy=0;entryPerimeter=0;exitX=0.5;exitY=1;exitDx=0;exitDy=0;labelBackgroundColor=none;fontColor=default;" parent="1" source="JdKEfNyxYyoWs0_i8qsF-1" target="5ox5fLNj8i4eV1NRZc5k-1" edge="1">
          <mxGeometry relative="1" as="geometry" />
        </mxCell>
        <mxCell id="JdKEfNyxYyoWs0_i8qsF-1" value="" style="shape=dataStorage;whiteSpace=wrap;html=1;fixedSize=1;size=30;direction=north;labelBackgroundColor=none;" parent="1" vertex="1">
          <mxGeometry x="560" y="59" width="100" height="80" as="geometry" />
        </mxCell>
        <mxCell id="5ox5fLNj8i4eV1NRZc5k-1" value="" style="shape=xor;whiteSpace=wrap;html=1;direction=south;labelBackgroundColor=none;" parent="1" vertex="1">
          <mxGeometry x="700" y="190" width="60" height="80" as="geometry" />
        </mxCell>
        <mxCell id="5ox5fLNj8i4eV1NRZc5k-3" value="" style="shape=document;whiteSpace=wrap;html=1;boundedLbl=1;size=0.625;direction=east;labelBackgroundColor=none;" parent="1" vertex="1">
          <mxGeometry x="120" y="340" width="120" height="80" as="geometry" />
        </mxCell>
        <mxCell id="Aze3I1Gy4K5vf0Qh-mg0-5" style="edgeStyle=orthogonalEdgeStyle;rounded=0;orthogonalLoop=1;jettySize=auto;html=1;exitX=1;exitY=0.25;exitDx=0;exitDy=0;entryX=0;entryY=0;entryDx=0;entryDy=0;" edge="1" parent="1" source="Aze3I1Gy4K5vf0Qh-mg0-1" target="Aze3I1Gy4K5vf0Qh-mg0-2">
          <mxGeometry relative="1" as="geometry" />
        </mxCell>
        <mxCell id="Aze3I1Gy4K5vf0Qh-mg0-1" value="" style="shape=step;perimeter=stepPerimeter;whiteSpace=wrap;html=1;fixedSize=1;" vertex="1" parent="1">
          <mxGeometry x="210" y="730" width="120" height="80" as="geometry" />
        </mxCell>
        <mxCell id="Aze3I1Gy4K5vf0Qh-mg0-2" value="" style="shape=trapezoid;perimeter=trapezoidPerimeter;whiteSpace=wrap;html=1;fixedSize=1;" vertex="1" parent="1">
          <mxGeometry x="390" y="670" width="120" height="60" as="geometry" />
        </mxCell>
        <mxCell id="Aze3I1Gy4K5vf0Qh-mg0-4" style="edgeStyle=orthogonalEdgeStyle;rounded=0;orthogonalLoop=1;jettySize=auto;html=1;exitX=1;exitY=0.25;exitDx=0;exitDy=0;entryX=0;entryY=0.75;entryDx=0;entryDy=0;" edge="1" parent="1" source="Aze3I1Gy4K5vf0Qh-mg0-3" target="Aze3I1Gy4K5vf0Qh-mg0-2">
          <mxGeometry relative="1" as="geometry" />
        </mxCell>
        <mxCell id="Aze3I1Gy4K5vf0Qh-mg0-3" value="" style="shape=hexagon;whiteSpace=wrap;html=1;fixedSize=1;perimeter=hexagonPerimeter2;" vertex="1" parent="1">
          <mxGeometry x="70" y="660" width="120" height="80" as="geometry" />
        </mxCell>
      </root>
    </mxGraphModel>
  </diagram>
  <diagram id="UjGQGW2VeNA4anNop8zO" name="Page-2">
    <mxGraphModel dx="1350" dy="949" grid="1" gridSize="10" guides="1" tooltips="1" connect="1" arrows="1" fold="1" page="1" pageScale="1" pageWidth="827" pageHeight="1169" math="0" shadow="0">
      <root>
        <mxCell id="0" />
        <mxCell id="1" parent="0" />
        <mxCell id="BJnyzdma6ymmFGXSg5xf-4" value="" style="edgeStyle=orthogonalEdgeStyle;rounded=0;orthogonalLoop=1;jettySize=auto;html=1;" edge="1" parent="1" source="BJnyzdma6ymmFGXSg5xf-1" target="BJnyzdma6ymmFGXSg5xf-3">
          <mxGeometry relative="1" as="geometry" />
        </mxCell>
        <mxCell id="BJnyzdma6ymmFGXSg5xf-1" value="testing" style="rounded=0;whiteSpace=wrap;html=1;" vertex="1" parent="1">
          <mxGeometry x="200" y="190" width="120" height="60" as="geometry" />
        </mxCell>
        <mxCell id="BJnyzdma6ymmFGXSg5xf-3" value="" style="whiteSpace=wrap;html=1;rounded=0;" vertex="1" parent="1">
          <mxGeometry x="390" y="370" width="120" height="60" as="geometry" />
        </mxCell>
      </root>
    </mxGraphModel>
  </diagram>
</mxfile>
